<svg width="137" height="36" viewBox="0 0 137 36" fill="none" xmlns="http://www.w3.org/2000/svg">
<g clip-path="url(#clip0_44793_897)">
<mask id="mask0_44793_897" style="mask-type:luminance" maskUnits="userSpaceOnUse" x="0" y="3" width="30" height="30">
<path d="M30 3H0V33H30V3Z" fill="white"/>
</mask>
<g mask="url(#mask0_44793_897)">
<path fill-rule="evenodd" clip-rule="evenodd" d="M16.0715 3H13.9286V12.488L10.3743 3.69087L8.38749 4.4936L12.0338 13.5186L5.15102 6.63578L3.63579 8.15102L10.2327 14.7479L1.68362 11.0127L0.825689 12.9763L9.87158 16.9286H0V19.0715H9.87156L0.825692 23.0237L1.68362 24.9873L10.2326 21.2522L3.63579 27.849L5.15102 29.3642L12.0338 22.4814L8.38749 31.5065L10.3743 32.3091L13.9286 23.5121V33H16.0715V23.5121L19.6257 32.3091L21.6124 31.5065L17.9663 22.4814L24.849 29.3642L26.3642 27.849L19.7673 21.2522L28.3164 24.9873L29.1742 23.0237L20.1285 19.0715H30V16.9286H20.1283L29.1742 12.9763L28.3164 11.0127L19.7673 14.7479L26.3642 8.151L24.849 6.63578L17.9663 13.5186L21.6124 4.4936L19.6257 3.69087L16.0715 12.488V3Z" fill="#FDFDFD"/>
</g>
</g>
<path d="M48.6758 27.3164C47.332 27.3164 46.1602 27.1211 45.1602 26.7305C44.168 26.332 43.3867 25.7656 42.8164 25.0312C42.2539 24.2891 41.9375 23.4023 41.8672 22.3711L41.8555 22.1836H45.207L45.2305 22.3125C45.3008 22.7422 45.4922 23.1172 45.8047 23.4375C46.125 23.75 46.5352 23.9961 47.0352 24.1758C47.543 24.3555 48.1172 24.4453 48.7578 24.4453C49.4141 24.4453 49.9805 24.3555 50.457 24.1758C50.9336 23.9961 51.3008 23.7422 51.5586 23.4141C51.8164 23.0859 51.9453 22.707 51.9453 22.2773V22.2656C51.9453 21.7031 51.7188 21.2578 51.2656 20.9297C50.8203 20.6016 50.0742 20.332 49.0273 20.1211L47.2344 19.7578C45.5547 19.4219 44.2969 18.8516 43.4609 18.0469C42.625 17.2422 42.207 16.2031 42.207 14.9297V14.918C42.2148 13.8867 42.4922 12.9883 43.0391 12.2227C43.5938 11.4492 44.3555 10.8477 45.3242 10.418C46.3008 9.98828 47.4102 9.77344 48.6523 9.77344C49.9648 9.77344 51.0938 9.98047 52.0391 10.3945C52.9844 10.8008 53.7227 11.375 54.2539 12.1172C54.793 12.8594 55.0898 13.7188 55.1445 14.6953L55.1562 14.9062H51.8164L51.8047 14.7656C51.7422 14.3203 51.5742 13.9414 51.3008 13.6289C51.0273 13.3164 50.6641 13.0742 50.2109 12.9023C49.7656 12.7305 49.2461 12.6445 48.6523 12.6445C48.0586 12.6445 47.543 12.7344 47.1055 12.9141C46.6758 13.0859 46.3398 13.3242 46.0977 13.6289C45.8633 13.9336 45.7461 14.2891 45.7461 14.6953V14.707C45.7461 15.2461 45.9727 15.6797 46.4258 16.0078C46.8789 16.3359 47.5938 16.6016 48.5703 16.8047L50.3516 17.168C51.5391 17.4023 52.5117 17.7266 53.2695 18.1406C54.0273 18.5547 54.5859 19.0781 54.9453 19.7109C55.3047 20.3359 55.4844 21.0898 55.4844 21.9727V21.9844C55.4844 23.0703 55.2109 24.0156 54.6641 24.8203C54.125 25.6172 53.3477 26.2344 52.332 26.6719C51.3164 27.1016 50.0977 27.3164 48.6758 27.3164ZM63.3242 27.2578C62.0508 27.2578 60.9453 26.9961 60.0078 26.4727C59.0703 25.9492 58.3477 25.1992 57.8398 24.2227C57.332 23.2383 57.0781 22.0625 57.0781 20.6953V20.6719C57.0781 19.3125 57.3359 18.1445 57.8516 17.168C58.3672 16.1836 59.0898 15.4297 60.0195 14.9062C60.957 14.375 62.0586 14.1094 63.3242 14.1094C64.5898 14.1094 65.6875 14.375 66.6172 14.9062C67.5547 15.4297 68.2812 16.1797 68.7969 17.1562C69.3125 18.1328 69.5703 19.3047 69.5703 20.6719V20.6953C69.5703 22.0703 69.3164 23.2461 68.8086 24.2227C68.3008 25.1992 67.5781 25.9492 66.6406 26.4727C65.7109 26.9961 64.6055 27.2578 63.3242 27.2578ZM63.3359 24.5742C63.9062 24.5742 64.3945 24.4219 64.8008 24.1172C65.2148 23.8125 65.5312 23.3711 65.75 22.793C65.9766 22.2148 66.0898 21.5156 66.0898 20.6953V20.6719C66.0898 19.8516 65.9766 19.1523 65.75 18.5742C65.5234 17.9961 65.2031 17.5547 64.7891 17.25C64.375 16.9453 63.8867 16.793 63.3242 16.793C62.7695 16.793 62.2812 16.9492 61.8594 17.2617C61.4453 17.5664 61.125 18.0078 60.8984 18.5859C60.6719 19.1562 60.5586 19.8516 60.5586 20.6719V20.6953C60.5586 21.5156 60.6719 22.2148 60.8984 22.793C61.125 23.3711 61.4453 23.8125 61.8594 24.1172C62.2734 24.4219 62.7656 24.5742 63.3359 24.5742ZM77.2461 27.2578C75.957 27.2578 74.8477 26.9961 73.918 26.4727C72.9883 25.9414 72.2734 25.1836 71.7734 24.1992C71.2734 23.2148 71.0234 22.0391 71.0234 20.6719V20.6602C71.0234 19.3086 71.2734 18.1445 71.7734 17.168C72.2812 16.1836 72.9961 15.4297 73.918 14.9062C74.8477 14.375 75.9492 14.1094 77.2227 14.1094C78.3555 14.1094 79.3398 14.3203 80.1758 14.7422C81.0117 15.1641 81.6641 15.7383 82.1328 16.4648C82.6094 17.1836 82.875 18 82.9297 18.9141L82.9414 18.9961H79.7539L79.7422 18.9023C79.6328 18.3008 79.3672 17.8008 78.9453 17.4023C78.5312 16.9961 77.9688 16.793 77.2578 16.793C76.6953 16.793 76.207 16.9492 75.793 17.2617C75.3789 17.5664 75.0586 18.0078 74.832 18.5859C74.6133 19.1641 74.5039 19.8594 74.5039 20.6719V20.6953C74.5039 21.5156 74.6133 22.2188 74.832 22.8047C75.0586 23.3828 75.3789 23.8242 75.793 24.1289C76.207 24.4258 76.6992 24.5742 77.2695 24.5742C77.9648 24.5742 78.5195 24.3867 78.9336 24.0117C79.3555 23.6367 79.625 23.1289 79.7422 22.4883L79.7656 22.4062L82.9414 22.3945V22.4766C82.8711 23.3906 82.5977 24.2109 82.1211 24.9375C81.6445 25.6562 80.9922 26.2227 80.1641 26.6367C79.3438 27.0508 78.3711 27.2578 77.2461 27.2578ZM84.8398 27V14.3789H88.2617V27H84.8398ZM86.5508 12.7031C86.0352 12.7031 85.5977 12.5273 85.2383 12.1758C84.8867 11.8164 84.7109 11.3906 84.7109 10.8984C84.7109 10.3984 84.8867 9.97266 85.2383 9.62109C85.5977 9.26953 86.0352 9.09375 86.5508 9.09375C87.0742 9.09375 87.5117 9.26953 87.8633 9.62109C88.2227 9.97266 88.4023 10.3984 88.4023 10.8984C88.4023 11.3906 88.2227 11.8164 87.8633 12.1758C87.5117 12.5273 87.0742 12.7031 86.5508 12.7031ZM94.4609 27.1992C93.625 27.1992 92.8906 27.0391 92.2578 26.7188C91.625 26.3906 91.1289 25.9414 90.7695 25.3711C90.418 24.793 90.2422 24.1328 90.2422 23.3906V23.3672C90.2422 22.6016 90.4336 21.9492 90.8164 21.4102C91.1992 20.8633 91.7539 20.4336 92.4805 20.1211C93.2148 19.8008 94.1055 19.6094 95.1523 19.5469L100.027 19.2422V21.3633L95.668 21.6445C94.9961 21.6836 94.4844 21.8398 94.1328 22.1133C93.7891 22.3789 93.6172 22.7383 93.6172 23.1914V23.2031C93.6172 23.6719 93.793 24.0391 94.1445 24.3047C94.5039 24.5703 94.9805 24.7031 95.5742 24.7031C96.0898 24.7031 96.5469 24.6016 96.9453 24.3984C97.3516 24.1953 97.6719 23.9219 97.9062 23.5781C98.1406 23.2266 98.2578 22.832 98.2578 22.3945V18.5273C98.2578 17.9727 98.0781 17.5352 97.7188 17.2148C97.3672 16.8945 96.8516 16.7344 96.1719 16.7344C95.5391 16.7344 95.0312 16.8633 94.6484 17.1211C94.2734 17.3711 94.0391 17.6953 93.9453 18.0938L93.9219 18.1992H90.7812L90.793 18.0586C90.8633 17.2852 91.125 16.6055 91.5781 16.0195C92.0391 15.4258 92.668 14.9609 93.4648 14.625C94.2695 14.2812 95.2227 14.1094 96.3242 14.1094C97.418 14.1094 98.3633 14.2852 99.1602 14.6367C99.957 14.9883 100.574 15.4805 101.012 16.1133C101.449 16.7461 101.668 17.4922 101.668 18.3516V27H98.2578V25.1602H98.1641C97.9297 25.582 97.625 25.9453 97.25 26.25C96.8828 26.5547 96.4648 26.7891 95.9961 26.9531C95.5273 27.1172 95.0156 27.1992 94.4609 27.1992ZM104.164 27V9.92578H107.586V27H104.164ZM110.176 27V14.3789H113.598V27H110.176ZM111.887 12.7031C111.371 12.7031 110.934 12.5273 110.574 12.1758C110.223 11.8164 110.047 11.3906 110.047 10.8984C110.047 10.3984 110.223 9.97266 110.574 9.62109C110.934 9.26953 111.371 9.09375 111.887 9.09375C112.41 9.09375 112.848 9.26953 113.199 9.62109C113.559 9.97266 113.738 10.3984 113.738 10.8984C113.738 11.3906 113.559 11.8164 113.199 12.1758C112.848 12.5273 112.41 12.7031 111.887 12.7031ZM121.156 27.2227C119.727 27.2227 118.676 26.9336 118.004 26.3555C117.332 25.7773 116.996 24.8242 116.996 23.4961V16.957H115.203V14.3789H116.996V11.3086H120.453V14.3789H122.82V16.957H120.453V23.0508C120.453 23.6289 120.582 24.0391 120.84 24.2812C121.105 24.5156 121.504 24.6328 122.035 24.6328C122.199 24.6328 122.34 24.6289 122.457 24.6211C122.582 24.6055 122.703 24.5898 122.82 24.5742V27.082C122.625 27.1211 122.387 27.1523 122.105 27.1758C121.824 27.207 121.508 27.2227 121.156 27.2227ZM126.77 31.207C126.465 31.207 126.164 31.1953 125.867 31.1719C125.57 31.1484 125.32 31.1211 125.117 31.0898V28.5352C125.242 28.5586 125.398 28.5781 125.586 28.5938C125.773 28.6172 125.984 28.6289 126.219 28.6289C126.75 28.6289 127.172 28.5391 127.484 28.3594C127.797 28.1797 128.023 27.8711 128.164 27.4336L128.305 27L123.852 14.3789H127.602L130.484 24.9961L129.98 24.1875H130.684L130.168 24.9961L133.051 14.3789H136.66L132.336 27.1875C132 28.1953 131.582 28.9922 131.082 29.5781C130.582 30.1719 129.977 30.5898 129.266 30.832C128.562 31.082 127.73 31.207 126.77 31.207Z" fill="#FDFDFD"/>
<defs>
<clipPath id="clip0_44793_897">
<rect width="30" height="30" fill="white" transform="translate(0 3)"/>
</clipPath>
</defs>
</svg>
